<svg width="1133" height="666" viewBox="0 0 1133 666" fill="none" xmlns="http://www.w3.org/2000/svg">
<g clip-path="url(#clip0_29_245)">
<path fill-rule="evenodd" clip-rule="evenodd" d="M1132.4 243C1132.2 240 1131.5 232.3 1130.9 226C1130 215.8 1129.3 211 1126 193C1124.6 185.8 1120.3 171.7 1115.4 158.9C1099.2 116.3 1069.9 79.4001 1030.3 51.7001C1027.4 49.6001 1024.8 48.0001 1024.6 48.0001C1024.3 48.0001 1021.4 46.2001 1018.2 44.0001C999.9 31.9001 958.7 15.3001 933.8 10.0001C931.1 9.50009 926.9 8.50009 924.3 7.90009C917.1 6.30009 909.2 5.10009 891 3.00009C875.6 1.10009 868 1.00009 777.5 1.00008L680.5 1.10008L685.5 3.60008C693.2 7.60008 712.2 18.1001 715 20.0001C716.4 21.0001 720.3 23.6001 723.7 25.9001C727.2 28.1001 730.8 30.6001 731.7 31.4001C732.7 32.2001 737.1 35.7001 741.5 39.1001C757.2 51.4001 783.8 79.7001 794.5 95.4001C814.8 125.1 827.7 152.6 835.9 183.2C839 194.8 836.8 193.2 853.5 196.4C872.5 200 890 212.7 897.3 228.2C912.7 260.5 901.2 296.4 870.7 311.3C862.1 315.6 849.9 319 843.3 319C839.1 319 838.6 319.8 836 329.5C831.5 347 819.6 377.3 813.3 387.2C812.1 389.3 811 391.2 811 391.4C811 392.3 799.8 410.5 795.2 417C768.5 454.8 735.4 483.6 693.5 505.5C686.4 509.3 680.3 512.5 680 512.7C679.8 512.9 723.9 512.9 778 512.7C862.2 512.4 878.5 512.1 890.3 510.7C907.3 508.6 925.1 505.5 934.7 503C938.7 501.9 945.3 500.1 949.3 499C996.1 486.4 1042.8 458.2 1072.6 424.5C1106.5 386.1 1125.2 342.7 1130.9 289C1132.1 278.1 1132.9 251.1 1132.4 243ZM1131 625.9C1127.4 619 1121.2 616 1099.9 610.4C1084.8 606.5 1080.2 602.4 1083.5 596C1085.8 591.6 1090.1 590 1099.9 590C1108.3 590 1113.7 591.3 1120.3 594.6C1123.7 596.4 1124.1 596.1 1126.8 589C1129.6 581.8 1129.5 580.5 1125.8 578.7C1115 573.6 1093.7 572 1083.7 575.4C1068.7 580.5 1062.2 589.2 1063.2 603.1C1064.2 616.3 1072.3 622.3 1096 627.5C1105.9 629.6 1111.6 632.5 1113.1 636.2C1118.2 648.5 1093.8 652.4 1073.5 642.5C1070.5 641 1067.7 640 1067.3 640.4C1066.8 640.9 1061 654 1061 654.6C1061 655.9 1076.1 661.6 1082.8 662.9C1102.6 666.9 1122.4 661.6 1130 650.3C1132.7 646.1 1133 644.9 1133 637.6C1132.9 631.6 1132.4 628.5 1131 625.9ZM1018.1 647C999.7 647 995 646.7 994.1 645.6C993.3 644.7 993 641 993.2 635.3L993.5 626.5L1013.5 626L1033.5 625.5L1033.8 618.3L1034.1 611L1014.7 611C999.2 611 995 610.7 994.1 609.6C993.3 608.7 993 605.1 993.2 599.8L993.5 591.5L1016.3 591.2L1039 591L1039 583L1039 575L1006.6 575C978 575 974.1 575.2 973.6 576.6C972.8 578.6 972.8 659.4 973.6 661.4C974.1 662.8 978.1 663 1007.6 663L1041 663L1041 655L1041 647L1018.1 647ZM1021.1 550L1011.3 550L1004.1 557.9C1000.2 562.3 997 566.1 997 566.4C997 566.7 1000 567 1003.8 567L1010.5 567L1020.8 558.9C1026.4 554.5 1031 550.7 1031 550.4C1031 550.2 1026.6 550 1021.1 550ZM951.3 575.7C951 575.3 933.9 575 913.3 575L876 575L876 583L876 591L886.4 591C892.1 591 898.2 591.3 899.9 591.6L903 592.3L903 626.4C903 645.1 903.4 661.1 903.8 661.8C904.4 662.7 907.1 663 913.6 662.8L922.5 662.5L922.8 628.1C922.9 604.2 923.4 593.3 924.2 592.3C925 591.3 928.1 591 937.4 591.2C944.1 591.3 950.1 591.1 950.8 590.6C952.1 589.8 952.6 576.9 951.3 575.7ZM844 575L834 575L834.2 618.8L834.5 662.5L844 662.5L853.5 662.5L853.8 618.8L854 575L844 575ZM805.6 575L796.3 575L793.2 581.8C791.5 585.5 785.8 598.6 780.5 611C775.2 623.4 770.2 634.1 769.5 634.9C767.8 636.6 768.9 638.8 753.6 602.5L742.2 575.5L731.5 575.2C721.6 575 720.8 575.1 721.3 576.7C722 579.2 728 593.2 742 625.5C748.7 640.9 754.8 655.4 755.7 657.8C757.5 662.8 758.6 663.2 769.5 662.8L777.5 662.5L780 657.5C781.4 654.7 783.3 650.7 784.2 648.5C788.9 637.3 803.4 604 805 600.5C808.3 593.5 815 577.1 815 576.1C815 575.4 811.5 575 805.6 575ZM701.5 239C697.1 209.5 684.4 184.5 663 163C651.2 151.2 641.4 144.1 626.5 137C604.7 126.5 589.6 123.5 563.1 124.3C543.9 124.9 533.6 126.9 518.1 133.1C455.8 157.9 420.9 226.4 437.4 291.2C450.1 341.2 490.8 380.4 540.6 390.4C585 399.4 630.4 386.2 662 355.1C693.1 324.5 707.8 281.3 701.5 239ZM700.3 575.7C700 575.3 695.5 575 690.3 575L681 575L681.2 618.8L681.5 662.5L691 662.5L700.5 662.5L700.8 619.4C700.9 595.7 700.7 576 700.3 575.7ZM621 575L583 575L583 583L583 591L585.8 591C587.3 591.1 593.5 591.2 599.5 591.3L610.5 591.5L611 627L611.5 662.5L621 662.5L630.5 662.5L630.8 628.1C630.9 604.7 631.4 593.2 632.1 592.3C633 591.3 636.6 591 646.1 591L659 591L659 583L659 575L621 575ZM565.7 584.9C555.5 576.6 547 573.6 533.5 573.6C506.7 573.7 487.5 590.8 486.2 615.8C484.8 642.6 502.4 662.2 529.2 663.8C544 664.6 556.4 660.9 565.4 652.9L569.5 649.2L566 645.5C564.1 643.5 561.2 640.9 559.7 639.8L556.9 637.8L551.6 641.4C532.3 654.7 507.9 643.6 506.2 620.9C505.3 608.5 510.9 598.7 521.7 593.4C531.8 588.4 546.3 590.4 553.1 597.6C554.3 598.9 555.8 600 556.4 600C557.9 599.9 569 589.7 568.9 588.5C568.9 588 567.4 586.3 565.7 584.9ZM442.6 647C430.3 647 419.5 646.7 418.6 646.4C417.3 645.9 417 644 417 635.9L417 626L437.3 625.8L457.5 625.5L457.5 618.5L457.5 611.5L437.5 611L417.5 610.5L417.2 600.8L416.9 591L439.7 590.8L462.5 590.5L462.8 582.8L463.1 575L430 575L397 575L397.2 618.8L397.5 662.5L431 662.5L464.5 662.5L464.8 654.8L465.1 647L442.6 647ZM226.3 1.10006L2.91118e-05 1.00005L1.79217e-05 257L6.73155e-06 513L226 513C350.3 513 452 512.8 452 512.5C452 512.3 446.7 509.4 440.1 506C390.5 480.7 351.5 443.2 322.7 393L317.2 383.5L243.3 383L169.5 382.5L169.2 352C169.1 335.2 169.2 320 169.5 318.3L170.1 315L231 315C264.5 315 292.1 314.7 292.3 314.3C292.6 313.8 292 308.8 291 303C285.5 271.8 285.9 237.2 292 204.5C292.6 201.2 293.4 196.8 293.7 194.8L294.3 191L232.2 191C180 191 170.1 190.8 169.7 189.6C169.4 188.8 169.2 175.2 169.3 159.4L169.5 130.5L243.5 130L317.4 129.5L321.3 122.5C337.4 93.8001 359.9 65.9001 383.3 45.8001C387.3 42.4001 390.7 39.4001 391 39.1001C392.6 37.2001 410.9 24.4001 422 17.5001C427.5 14.0001 436.9 8.90007 445 4.80007L452.5 1.10007L226.3 1.10006ZM353.3 646.8L331.5 646.5L331 611L330.5 575.5L320.7 575.2L311 574.9L311.2 618.7L311.5 662.5L343 662.5L374.5 662.5L374.8 654.8L375.1 647L353.3 646.8ZM288.3 649.8L287.9 647L267.7 647C256.6 647 246.9 646.6 246.3 646.2C245.3 645.6 245 636.9 244.8 610.4L244.5 575.5L234.5 575.5L224.5 575.5L224.3 617.9C224.1 647.4 224.4 660.8 225.2 661.7C226 662.7 232.8 663 257 663L287.8 663L288.4 659.9C289 656.6 289 654.5 288.3 649.8ZM198 612C196.3 600.8 192.8 594 184.8 586.4C175.7 577.6 164.9 573.6 150.5 573.7C134.8 573.8 122.9 578.7 113.5 589.1C101 603 99.4 628.2 110 644.2C127.5 670.6 173 670.8 190.9 644.6C196.7 636.1 199.7 622.6 198 612ZM175.4 631.9C170.3 642 160.3 647.6 148.5 646.8C134.4 645.9 124.4 635.9 123.2 621.4C122.1 607.8 129.1 596.4 141.1 592.2C148.5 589.6 151.7 589.5 158.3 591.5C170.9 595.3 177.8 605.1 177.9 619.1C178 625.3 177.5 627.5 175.4 631.9ZM82.7 585.4C67 572 44.4 569.7 25.2 579.4C-0.399997 592.4 -5.7 630.6 15.2 651.2C32.1 667.8 66.7 668.5 82 652.6L85.4 649L80 643.5C73.8 637.2 73 637 68.6 640.7C57.8 649.8 41 649.1 30.7 639.2C18.4 627.2 19.9 605.2 33.7 595.7C37.9 592.8 46.4 590 51.1 590C55.3 590 64.8 593.7 69 597C71.1 598.6 73 600 73.3 600C74.3 600 85 589.4 85 588.4C85 587.8 84 586.5 82.7 585.4Z" fill="#05233A"/>
<path fill-rule="evenodd" clip-rule="evenodd" d="M804.5 233C804.3 232.2 803.4 226.8 802.5 221C790.6 142.1 735.4 71.2 661.8 40.1C584.8 7.49999 497.2 16.9 430.5 64.8C340.9 129.2 307.2 244.7 348 347.6C351.5 356.3 358.7 371 362.3 376.7C363.8 379.1 365 381.2 365 381.5C365 382.1 374.8 396.4 379.3 402.2C412.8 446.1 460 476.8 514 489.8C547.4 497.9 592.7 497.5 626.3 488.9C654 481.8 684.7 467.5 707 451.1C724.3 438.5 742.8 421 752.5 408.1C754.7 405.1 757.6 401.4 759 399.7C773.8 381.6 790.9 345.5 798.1 317.6C803.4 297.2 804.2 289.7 804.5 261.5C804.7 246.7 804.7 233.8 804.5 233ZM785.1 275.3C784 276.7 781.5 277 768.8 277C760.4 277 753 276.5 751.9 276C750.1 275 750 273.7 750 258C750 237.8 747.9 239.8 769.5 240.2C784.3 240.5 784.5 240.5 785.7 243C787.5 246.6 787 273.1 785.1 275.3ZM732.5 278.9C726.8 318.8 709.9 351.9 681.4 378.9C657.7 401.3 631.1 414.9 597.5 421.7C583.6 424.5 550.2 424.2 536.1 421.2C502.4 413.8 475 398.9 450.8 374.7C395.8 319.6 386.7 234 428.9 169C432 164.3 434.7 160.3 435 160C435.3 159.7 437.9 156.6 440.7 153C459.3 129.3 488.9 109.5 519.5 100.2C552.8 90.1 580.4 89.8 613.9 99.2C691.1 121 743.6 200.6 732.5 278.9ZM722.3 413.1C716.9 418.4 711.7 423 710.7 423.3C709.6 423.7 707.5 422.6 704.2 419.7C695.8 412.1 686 401.6 686 400.1C686 397.5 707.1 377 709.8 377C712.4 377 731.5 394.7 733 398.5C734.1 401.3 733.4 402.3 722.3 413.1ZM722.1 129.4C712.9 138.6 710.8 140.2 708.8 139.7C705.8 138.9 686 118.8 686 116.5C686 113.7 706.9 93 709.7 93C713.2 93 733 112.4 733 115.9C733 117.9 730.4 121.1 722.1 129.4ZM585 74.1C584 75.9 582.7 76 567.5 76C552.3 76 551 75.9 550 74.1C549.5 73 549 65.6 549 57.1C549 38 548 39 567.7 39C586.8 39 586 38.2 586 57.6C586 65.7 585.5 73 585 74.1ZM584.6 475.5C582.4 478.5 552.6 478.5 550.4 475.6C548.5 472.9 548.4 445.2 550.3 442.7C551.4 441.1 553.4 441 568 441.2L584.4 441.5L585.1 444C586.4 449.2 586.1 473.5 584.6 475.5ZM439.1 129.3C433.2 135.2 427.5 140 426.5 140C423.9 140 403 119.1 403 116.5C403 113.7 423.5 93 426.4 93C429.2 93 450 113.7 450 116.5C450 117.9 446 122.5 439.1 129.3ZM439.6 412.8C429.7 422.6 428.4 423.5 425 423C422.1 422.7 403 402.7 403 400.1C403 396.7 422.6 377 426.1 377C429.2 377 450 397.5 450 400.5C450 401.8 446 406.5 439.6 412.8ZM383.8 275.8C382.3 277.3 353.7 277.5 350.9 276C349.1 275 349 273.7 349 258.7C349 247.3 349.4 242 350.2 241.2C351 240.4 356.2 240 367 240C377.8 240 383 240.4 383.8 241.2C385.5 242.9 385.5 274.1 383.8 275.8Z" fill="#D84141"/>
<path fill-rule="evenodd" clip-rule="evenodd" d="M785.7 243C784.5 240.5 784.3 240.5 769.5 240.2C747.9 239.8 750 237.8 750 258C750 273.7 750.1 275 751.9 276C753 276.5 760.4 277 768.8 277C781.5 277 784 276.7 785.1 275.3C787 273.1 787.5 246.6 785.7 243ZM732.9 239.5C724.3 172.8 677 117 613.9 99.2C580.4 89.8 552.8 90.1 519.5 100.2C488.9 109.5 459.3 129.3 440.7 153C437.9 156.6 435.3 159.7 435 160C434.7 160.3 432 164.3 428.9 169C404.1 207.2 396.3 254.7 407.5 299C421.1 352.5 463.3 398.1 515.1 415.4C535.2 422.1 543.9 423.4 567.5 423.5C589.8 423.5 597.3 422.5 614.5 417.5C670.8 401 715.6 354 729.1 297.4C733.6 278.3 735 256.6 732.9 239.5ZM701.8 280C693.5 328.1 661.9 367.3 617.5 384.8C612 387 599.7 390.3 590.5 392.1C582.7 393.6 553.2 393.6 545.5 392.1C536.1 390.3 523.8 387 520 385.3C497.8 375.6 487.9 369 472.9 354.1C446.1 327.2 433 295.8 433 258C433 211.3 456.2 169.2 496 143.6C507.4 136.2 526.4 128.5 539 126.1C542 125.5 546.9 124.6 549.8 124C561.2 121.8 588.1 123.3 601 126.9C602.9 127.4 605.6 128.2 607 128.5C608.4 128.9 610.4 129.5 611.5 130C612.6 130.5 615.8 131.6 618.5 132.6C626.7 135.6 638.2 141.9 647.9 148.8C655.7 154.4 669.8 168.3 676.3 176.8C698.1 205.5 707.9 245 701.8 280ZM733 398.5C731.5 394.7 712.4 377 709.8 377C707.1 377 686 397.5 686 400.1C686 401.6 695.8 412.1 704.2 419.7C707.5 422.6 709.6 423.7 710.7 423.3C712.7 422.7 731.6 404.4 732.9 402C733.4 401.2 733.4 399.6 733 398.5ZM722.5 103.2C715.3 96.2 711.3 93 709.7 93C706.9 93 686 113.7 686 116.5C686 118.8 705.8 138.9 708.8 139.7C712.1 140.5 733 120 733 115.9C733 113.9 730.6 110.9 722.5 103.2ZM584 41C582.2 39.2 580.7 39 567.7 39C548 39 549 38 549 57.1C549 65.6 549.5 73 550 74.1C551.6 77 583.4 77 585 74.1C585.5 73 586 65.7 586 57.6C586 44.3 585.8 42.8 584 41ZM585.1 444L584.4 441.5L568 441.2C553.4 441 551.4 441.1 550.3 442.7C548.4 445.2 548.5 472.9 550.4 475.6C552.6 478.5 582.4 478.5 584.6 475.5C586.1 473.5 586.4 449.2 585.1 444ZM439.2 103.7C432.4 96.9 427.7 93 426.4 93C423.5 93 403 113.7 403 116.5C403 119.1 423.9 140 426.5 140C429.1 140 450 119.1 450 116.5C450 115.2 446 110.5 439.2 103.7ZM439.2 387.7C431.5 380 427.8 377 426.1 377C422.6 377 403 396.7 403 400.1C403 401.9 405.8 405.3 413.3 412.7C422.9 422.3 424.5 423.4 427.9 423.1C430.3 422.9 450 402.7 450 400.5C450 399.2 445.9 394.3 439.2 387.7ZM383.8 241.2C383 240.4 377.8 240 367 240C356.2 240 351 240.4 350.2 241.2C349.4 242 349 247.3 349 258.7C349 273.7 349.1 275 350.9 276C353.7 277.5 382.3 277.3 383.8 275.8C385.5 274.1 385.5 242.9 383.8 241.2ZM175.5 607.3C167.8 590.3 145.4 585.7 131.8 598.3C120.9 608.4 120.9 629.1 131.7 639.2C139 646 152.2 648.5 161.2 644.7C175.1 638.8 181.9 621.2 175.5 607.3Z" fill="white"/>
</g>
<defs>
<clipPath id="clip0_29_245">
<rect width="666" height="1133" fill="white" transform="translate(1133 4.9525e-05) rotate(90)"/>
</clipPath>
</defs>
</svg>
