<svg width="677" height="150" viewBox="0 0 677 150" fill="none" xmlns="http://www.w3.org/2000/svg">
<path d="M252.488 15.5224C253.659 6.71806 261.08 0.652832 270.064 0.652832C279.828 0.652832 286.468 7.69632 285.101 17.0876C283.929 25.6963 276.313 31.9572 267.134 31.9572C257.37 31.9572 250.925 24.9137 252.488 15.5224ZM236.474 145.631L251.511 45.8485H277.289L262.252 145.631H236.474Z" fill="#008E3D"/>
<path d="M130.294 145.631L145.331 45.8481H169.352L168.18 53.4785C174.624 46.6307 183.998 42.522 194.739 42.522C218.174 42.522 233.406 61.8915 229.696 86.7392L220.908 145.631H195.13L203.722 88.1088C205.675 75.1958 198.645 66.1958 186.928 66.1958C175.796 66.1958 166.813 74.2175 165.055 86.1523L156.072 145.631H130.294Z" fill="#008E3D"/>
<path d="M13.4055 2.80542H41.3317L28.638 86.7404C25.7086 107.284 37.6212 122.153 57.3454 122.153C75.898 122.153 90.154 108.653 93.2786 88.5012L106.168 2.80542H134.094L120.424 92.023C115.346 126.066 89.9587 148.566 56.3689 148.566C19.2641 148.566 -4.1705 121.175 1.49286 84.5882L13.4055 2.80542Z" fill="#008E3D"/>
<path d="M655.277 16.8267L650.975 45.1937H672.652L672.541 45.9452L669.221 68.4464L669.136 68.9942L668.583 69.0007L647.259 69.1918L635.739 146.281H608.646L608.76 145.535L620.165 69.0007H601.812L601.927 68.2553L605.327 45.1937H623.878L628.092 17.3807L628.175 16.8267H655.277ZM628.734 17.4763L624.443 45.8496H605.887L602.568 68.3511H620.928L609.402 145.631H635.18L646.706 68.5422L668.577 68.3511L671.897 45.8496H650.221L654.509 17.4763H628.734Z" fill="white"/>
<path d="M587.515 41.8691C591.863 41.8694 596.059 42.6309 599.968 44.0218L601.628 44.6588L602.32 44.9453L601.939 45.5886L587.489 70.2425L587.21 70.714L586.701 70.5229C583.631 69.3692 580.972 68.8031 578.138 68.8031C573.148 68.8031 569.134 70.6312 566.066 74.3375C562.975 78.0731 560.808 83.7653 559.646 91.534L551.445 145.726L551.356 146.281H524.262L524.377 145.535L539.411 45.7541L539.5 45.1937H564.839L564.719 45.9452L563.854 51.5626C570.237 45.3189 578.449 41.8691 587.515 41.8691ZM587.515 42.5252C577.946 42.5252 569.351 46.4361 562.907 53.4797L564.076 45.8497H540.06L525.019 145.631H550.797L559.003 91.4381C561.347 75.786 567.788 68.1536 578.138 68.1536L579.232 68.179C581.758 68.3075 584.192 68.8853 586.924 69.9112L601.38 45.2638C597.62 43.7229 593.56 42.7809 589.333 42.5697L587.515 42.5252Z" fill="white"/>
<path d="M476.043 42.3276C504.235 43.6928 523.69 65.9798 521.197 93.8393V93.8517C520.804 97.605 520.206 100.971 518.827 105.513L518.687 105.978H443.966C445.627 116.745 455.495 124.632 469.578 124.633V125.283C454.933 125.282 444.584 116.871 443.215 105.329H518.204L519.093 102.144C519.852 99.1369 520.256 96.5693 520.549 93.7819C523.008 66.3 503.843 44.3247 476.011 42.9772L473.291 42.9135C444.975 42.9135 420.955 63.847 416.853 92.2148C412.124 122.92 433.05 147.021 465.077 148.497L468.212 148.567C486.178 148.567 502.388 141.716 513.715 129.39L494.772 113.545C487.155 121.762 479.342 125.283 469.578 125.283V124.633C479.142 124.633 486.788 121.198 494.294 113.099L494.714 112.647L495.191 113.041L514.129 128.894L514.656 129.333L514.192 129.836C502.733 142.306 486.345 149.217 468.212 149.217C451.16 149.217 436.917 142.991 427.552 132.715C418.185 122.437 413.738 108.153 416.204 92.1261L416.656 89.4574C421.878 62.1351 445.542 42.2639 473.291 42.2639L476.043 42.3276ZM472.312 65.803C484.81 65.803 493.991 74.2174 494.186 84.7826H446.337C450.828 73.4354 460.205 65.8037 472.312 65.803ZM472.312 66.4591C460.839 66.4598 451.87 73.4863 447.329 84.133H493.506C492.956 74.2956 484.257 66.4591 472.312 66.4591Z" fill="white"/>
<path d="M326.571 2.15259L326.698 2.64936L352.266 107.844L410.249 2.49014L410.433 2.15259H442.988L442.434 3.12703L361 145.956L360.81 146.281H332.979L332.852 145.79L296.337 2.96781L296.127 2.15259H326.571ZM296.966 2.80222L333.481 145.631H360.435L441.869 2.80222H410.821L352.037 109.634L326.063 2.80222H296.966Z" fill="white"/>
<path d="M278.048 45.1936L277.933 45.9451L262.899 145.726L262.81 146.281H235.716L235.83 145.535L250.865 45.754L250.954 45.1936H278.048ZM251.513 45.8496L236.473 145.631H262.25L277.291 45.8496H251.513ZM270.063 0C275.103 0 279.389 1.81906 282.237 4.90404C285.089 7.9933 286.456 12.3066 285.746 17.1833C284.523 26.1429 276.601 32.6087 267.133 32.6087C262.094 32.6082 257.856 30.7889 255.08 27.6983C252.299 24.6028 251.033 20.2861 251.844 15.4127C253.072 6.27123 260.788 0.000235034 270.063 0ZM270.063 0.649626C261.081 0.649861 253.658 6.71733 252.486 15.521C251.021 24.3262 256.597 31.0692 265.346 31.8763L267.133 31.9591C275.738 31.9591 282.969 26.4543 284.805 18.6736L285.104 17.0877C286.471 7.6965 279.828 0.649626 270.063 0.649626Z" fill="#008E3D"/>
<path d="M194.738 41.8691C206.644 41.8691 216.503 46.7948 222.907 54.9063C229.306 63.0133 232.216 74.256 230.338 86.8338L221.47 146.281H194.376L194.485 145.535L203.079 88.0116L203.333 85.6873C203.694 80.3903 202.428 75.9379 199.939 72.7071C197.099 69.0229 192.609 66.8479 186.926 66.8479C176.144 66.8486 167.414 74.6068 165.7 86.2475L156.717 145.726L156.634 146.281H129.534L129.649 145.535L144.69 45.7541L144.772 45.1937H170.111L169.997 45.9452L169.12 51.6135C175.614 45.4836 184.588 41.8692 194.738 41.8691ZM194.738 42.5252C183.998 42.5252 174.623 46.6318 168.179 53.4797L169.348 45.8497H145.332L130.291 145.631H156.069L165.058 86.1523C166.815 74.2181 175.795 66.199 186.926 66.1984L188.013 66.2238C199.075 66.7644 205.612 75.5988 203.721 88.1075L195.126 145.631H220.91L229.696 86.7379C233.29 62.6679 219.107 43.7362 196.913 42.5761L194.738 42.5252Z" fill="#008E3D"/>
<path d="M42.0868 2.15259L41.9787 2.90411L29.2837 86.8395C27.8417 96.9645 30.0635 105.625 35.005 111.742C39.9432 117.853 47.6544 121.499 57.3437 121.499V122.155L55.5192 122.11C36.8913 121.219 25.7975 106.639 28.6353 86.7377L41.3303 2.80222H13.4038L1.49066 84.5849C-3.99575 120.029 17.8285 146.843 52.9319 148.484L56.3711 148.567C88.9109 148.566 113.755 127.448 119.891 95.1769L120.425 92.0243L134.092 2.80222H106.166L93.2802 88.5019C90.1549 108.653 75.8956 122.155 57.3437 122.155V121.499C75.5252 121.499 89.5547 108.287 92.6377 88.4001L105.523 2.70668L105.606 2.15259H134.855L134.734 2.90411L121.066 92.1195C115.943 126.468 90.2949 149.216 56.3711 149.217C37.6548 149.217 22.3279 142.306 12.3994 130.721C2.47125 119.138 -2.0076 102.945 0.8486 84.4897L12.7617 2.71305L12.8443 2.15259H42.0868Z" fill="#008E3D"/>
<path d="M602.568 68.3492L605.888 45.8491H624.441L628.737 17.4795H654.516L650.219 45.8491H671.896L668.576 68.3492L646.704 68.5448L635.181 145.632H609.403L620.925 68.3492H602.568Z" fill="white"/>
<path d="M525.021 145.631L540.058 45.8481H564.078L562.906 53.4785C569.351 46.435 577.944 42.522 587.513 42.522C592.395 42.522 597.082 43.5002 601.378 45.2611L586.927 69.9131C583.802 68.7392 581.068 68.1523 578.139 68.1523C567.789 68.1523 561.344 75.7827 559.001 91.4349L550.799 145.631H525.021Z" fill="white"/>
<path d="M513.715 129.392C502.389 141.718 486.18 148.566 468.213 148.566C434.428 148.566 411.97 123.914 416.852 92.218C420.953 63.8484 444.974 42.9136 473.291 42.9136C502.584 42.9136 523.089 65.4137 520.55 93.7833C520.16 97.5007 519.574 100.827 518.207 105.327H443.216C444.583 116.87 454.934 125.283 469.58 125.283C479.345 125.283 487.155 121.762 494.772 113.544L513.715 129.392ZM446.341 84.7833H494.186C493.991 74.2181 484.813 65.805 472.314 65.805C460.206 65.805 450.832 73.4354 446.341 84.7833Z" fill="white"/>
<path d="M333.484 145.632L296.965 2.80542H326.063L352.036 109.632L410.818 2.80542H441.869L360.434 145.632H333.484Z" fill="white"/>
</svg>
